<?xml version="1.0" standalone="no"?><!DOCTYPE svg PUBLIC "-//W3C//DTD SVG 1.1//EN" "http://www.w3.org/Graphics/SVG/1.1/DTD/svg11.dtd"><svg t="1584982270431" class="icon" viewBox="0 0 1024 1024" version="1.1" xmlns="http://www.w3.org/2000/svg" p-id="14723" width="64" height="64" xmlns:xlink="http://www.w3.org/1999/xlink"><defs><style type="text/css"></style></defs><path d="M618.375 191.784m-93.895 0a93.895 93.895 0 1 0 187.79 0 93.895 93.895 0 1 0-187.79 0Z" fill="#3D75FF" p-id="14724"></path><path d="M609.235 203.818m-93.895 0a93.895 93.895 0 1 0 187.79 0 93.895 93.895 0 1 0-187.79 0Z" fill="#3C74FE" p-id="14725"></path><path d="M600.096 215.851m-93.895 0a93.895 93.895 0 1 0 187.79 0 93.895 93.895 0 1 0-187.79 0Z" fill="#3C73FC" p-id="14726"></path><path d="M590.957 227.885m-93.895 0a93.895 93.895 0 1 0 187.79 0 93.895 93.895 0 1 0-187.79 0Z" fill="#3B72FB" p-id="14727"></path><path d="M581.817 239.919m-93.895 0a93.895 93.895 0 1 0 187.79 0 93.895 93.895 0 1 0-187.79 0Z" fill="#3B71FA" p-id="14728"></path><path d="M572.678 251.952m-93.895 0a93.895 93.895 0 1 0 187.79 0 93.895 93.895 0 1 0-187.79 0Z" fill="#3A70F8" p-id="14729"></path><path d="M563.538 263.986m-93.895 0a93.895 93.895 0 1 0 187.79 0 93.895 93.895 0 1 0-187.79 0Z" fill="#3A6FF7" p-id="14730"></path><path d="M554.399 276.02m-93.895 0a93.895 93.895 0 1 0 187.79 0 93.895 93.895 0 1 0-187.79 0Z" fill="#396DF6" p-id="14731"></path><path d="M545.26 288.054m-93.895 0a93.895 93.895 0 1 0 187.79 0 93.895 93.895 0 1 0-187.79 0Z" fill="#396CF4" p-id="14732"></path><path d="M536.12 300.087m-93.895 0a93.895 93.895 0 1 0 187.79 0 93.895 93.895 0 1 0-187.79 0Z" fill="#386BF3" p-id="14733"></path><path d="M526.981 312.121m-93.895 0a93.895 93.895 0 1 0 187.79 0 93.895 93.895 0 1 0-187.79 0Z" fill="#386AF1" p-id="14734"></path><path d="M517.841 324.155m-93.895 0a93.895 93.895 0 1 0 187.79 0 93.895 93.895 0 1 0-187.79 0Z" fill="#3769F0" p-id="14735"></path><path d="M508.702 336.188m-93.895 0a93.895 93.895 0 1 0 187.79 0 93.895 93.895 0 1 0-187.79 0Z" fill="#3668EF" p-id="14736"></path><path d="M499.562 348.222m-93.895 0a93.895 93.895 0 1 0 187.79 0 93.895 93.895 0 1 0-187.79 0Z" fill="#3667ED" p-id="14737"></path><path d="M490.423 360.256m-93.895 0a93.895 93.895 0 1 0 187.79 0 93.895 93.895 0 1 0-187.79 0Z" fill="#3566EC" p-id="14738"></path><path d="M481.284 372.29m-93.895 0a93.895 93.895 0 1 0 187.79 0 93.895 93.895 0 1 0-187.79 0Z" fill="#3565EB" p-id="14739"></path><path d="M472.144 384.323m-93.895 0a93.895 93.895 0 1 0 187.79 0 93.895 93.895 0 1 0-187.79 0Z" fill="#3464E9" p-id="14740"></path><path d="M463.005 396.357m-93.895 0a93.895 93.895 0 1 0 187.79 0 93.895 93.895 0 1 0-187.79 0Z" fill="#3463E8" p-id="14741"></path><path d="M453.865 408.391m-93.895 0a93.895 93.895 0 1 0 187.79 0 93.895 93.895 0 1 0-187.79 0Z" fill="#3362E7" p-id="14742"></path><path d="M444.726 420.424m-93.895 0a93.895 93.895 0 1 0 187.79 0 93.895 93.895 0 1 0-187.79 0Z" fill="#3360E5" p-id="14743"></path><path d="M435.586 432.458m-93.895 0a93.895 93.895 0 1 0 187.79 0 93.895 93.895 0 1 0-187.79 0Z" fill="#325FE4" p-id="14744"></path><path d="M426.447 444.492m-93.895 0a93.895 93.895 0 1 0 187.79 0 93.895 93.895 0 1 0-187.79 0Z" fill="#325EE3" p-id="14745"></path><path d="M417.308 456.526m-93.895 0a93.895 93.895 0 1 0 187.79 0 93.895 93.895 0 1 0-187.79 0Z" fill="#315DE1" p-id="14746"></path><path d="M408.168 468.559m-93.895 0a93.895 93.895 0 1 0 187.79 0 93.895 93.895 0 1 0-187.79 0Z" fill="#305CE0" p-id="14747"></path><path d="M399.029 480.593m-93.895 0a93.895 93.895 0 1 0 187.79 0 93.895 93.895 0 1 0-187.79 0Z" fill="#305BDE" p-id="14748"></path><path d="M389.889 492.627m-93.895 0a93.895 93.895 0 1 0 187.79 0 93.895 93.895 0 1 0-187.79 0Z" fill="#2F5ADD" p-id="14749"></path><path d="M380.75 504.66m-93.895 0a93.895 93.895 0 1 0 187.79 0 93.895 93.895 0 1 0-187.79 0Z" fill="#2F59DC" p-id="14750"></path><path d="M371.61 516.694m-93.895 0a93.895 93.895 0 1 0 187.79 0 93.895 93.895 0 1 0-187.79 0Z" fill="#2E58DA" p-id="14751"></path><path d="M362.471 528.728m-93.895 0a93.895 93.895 0 1 0 187.79 0 93.895 93.895 0 1 0-187.79 0Z" fill="#2E57D9" p-id="14752"></path><path d="M353.332 540.762m-93.895 0a93.895 93.895 0 1 0 187.79 0 93.895 93.895 0 1 0-187.79 0Z" fill="#2D56D8" p-id="14753"></path><path d="M344.217 552.784m-93.895 0a93.895 93.895 0 1 0 187.79 0 93.895 93.895 0 1 0-187.79 0Z" fill="#2D55D6" p-id="14754"></path><path d="M336 565.024m-93.895 0a93.895 93.895 0 1 0 187.79 0 93.895 93.895 0 1 0-187.79 0Z" fill="#2C54D5" p-id="14755"></path><path d="M328.815 577.964m-93.895 0a93.895 93.895 0 1 0 187.79 0 93.895 93.895 0 1 0-187.79 0Z" fill="#2C52D4" p-id="14756"></path><path d="M322.719 591.544m-93.895 0a93.895 93.895 0 1 0 187.79 0 93.895 93.895 0 1 0-187.79 0Z" fill="#2B51D2" p-id="14757"></path><path d="M317.772 605.707m-93.895 0a93.895 93.895 0 1 0 187.79 0 93.895 93.895 0 1 0-187.79 0Z" fill="#2A50D1" p-id="14758"></path><path d="M314.032 620.393m-93.895 0a93.895 93.895 0 1 0 187.79 0 93.895 93.895 0 1 0-187.79 0Z" fill="#2A4FD0" p-id="14759"></path><path d="M311.558 635.544m-93.895 0a93.895 93.895 0 1 0 187.79 0 93.895 93.895 0 1 0-187.79 0Z" fill="#294ECE" p-id="14760"></path><path d="M310.408 651.1m-93.895 0a93.895 93.895 0 1 0 187.79 0 93.895 93.895 0 1 0-187.79 0Z" fill="#294DCD" p-id="14761"></path><path d="M310.639 666.914m-93.895 0a93.895 93.895 0 1 0 187.79 0 93.895 93.895 0 1 0-187.79 0Z" fill="#284CCB" p-id="14762"></path><path d="M312.246 682.423m-93.895 0a93.895 93.895 0 1 0 187.79 0 93.895 93.895 0 1 0-187.79 0Z" fill="#284BCA" p-id="14763"></path><path d="M315.172 697.5m-93.895 0a93.895 93.895 0 1 0 187.79 0 93.895 93.895 0 1 0-187.79 0Z" fill="#274AC9" p-id="14764"></path><path d="M319.357 712.089m-93.895 0a93.895 93.895 0 1 0 187.79 0 93.895 93.895 0 1 0-187.79 0Z" fill="#2749C7" p-id="14765"></path><path d="M324.74 726.127m-93.895 0a93.895 93.895 0 1 0 187.79 0 93.895 93.895 0 1 0-187.79 0Z" fill="#2648C6" p-id="14766"></path><path d="M331.264 739.556m-93.895 0a93.895 93.895 0 1 0 187.79 0 93.895 93.895 0 1 0-187.79 0Z" fill="#2647C5" p-id="14767"></path><path d="M338.867 752.317m-93.895 0a93.895 93.895 0 1 0 187.79 0 93.895 93.895 0 1 0-187.79 0Z" fill="#2546C3" p-id="14768"></path><path d="M347.491 764.349m-93.895 0a93.895 93.895 0 1 0 187.79 0 93.895 93.895 0 1 0-187.79 0Z" fill="#2444C2" p-id="14769"></path><path d="M357.075 775.594m-93.895 0a93.895 93.895 0 1 0 187.79 0 93.895 93.895 0 1 0-187.79 0Z" fill="#2443C1" p-id="14770"></path><path d="M367.561 785.99m-93.895 0a93.895 93.895 0 1 0 187.79 0 93.895 93.895 0 1 0-187.79 0Z" fill="#2342BF" p-id="14771"></path><path d="M378.888 795.48m-93.895 0a93.895 93.895 0 1 0 187.79 0 93.895 93.895 0 1 0-187.79 0Z" fill="#2341BE" p-id="14772"></path><path d="M390.997 804.003m-93.895 0a93.895 93.895 0 1 0 187.79 0 93.895 93.895 0 1 0-187.79 0Z" fill="#2240BD" p-id="14773"></path><path d="M403.828 811.499m-93.895 0a93.895 93.895 0 1 0 187.79 0 93.895 93.895 0 1 0-187.79 0Z" fill="#223FBB" p-id="14774"></path><path d="M417.322 817.909m-93.895 0a93.895 93.895 0 1 0 187.79 0 93.895 93.895 0 1 0-187.79 0Z" fill="#213EBA" p-id="14775"></path><path d="M431.419 823.174m-93.895 0a93.895 93.895 0 1 0 187.79 0 93.895 93.895 0 1 0-187.79 0Z" fill="#213DB8" p-id="14776"></path><path d="M446.059 827.233m-93.895 0a93.895 93.895 0 1 0 187.79 0 93.895 93.895 0 1 0-187.79 0Z" fill="#203CB7" p-id="14777"></path><path d="M461.184 830.028m-93.895 0a93.895 93.895 0 1 0 187.79 0 93.895 93.895 0 1 0-187.79 0Z" fill="#203BB6" p-id="14778"></path><path d="M476.732 831.498m-93.895 0a93.895 93.895 0 1 0 187.79 0 93.895 93.895 0 1 0-187.79 0Z" fill="#1F3AB4" p-id="14779"></path><path d="M492.582 831.586m-93.895 0a93.895 93.895 0 1 0 187.79 0 93.895 93.895 0 1 0-187.79 0Z" fill="#1F39B3" p-id="14780"></path><path d="M508.18 830.286m-93.895 0a93.895 93.895 0 1 0 187.79 0 93.895 93.895 0 1 0-187.79 0Z" fill="#1E37B2" p-id="14781"></path><path d="M523.36 827.653m-93.895 0a93.895 93.895 0 1 0 187.79 0 93.895 93.895 0 1 0-187.79 0Z" fill="#1D36B0" p-id="14782"></path><path d="M538.065 823.749m-93.895 0a93.895 93.895 0 1 0 187.79 0 93.895 93.895 0 1 0-187.79 0Z" fill="#1D35AF" p-id="14783"></path><path d="M552.233 818.632m-93.895 0a93.895 93.895 0 1 0 187.79 0 93.895 93.895 0 1 0-187.79 0Z" fill="#1C34AE" p-id="14784"></path><path d="M565.806 812.361m-93.895 0a93.895 93.895 0 1 0 187.79 0 93.895 93.895 0 1 0-187.79 0Z" fill="#1C33AC" p-id="14785"></path><path d="M578.723 804.998m-93.895 0a93.895 93.895 0 1 0 187.79 0 93.895 93.895 0 1 0-187.79 0Z" fill="#1B32AB" p-id="14786"></path><path d="M590.926 796.6m-93.895 0a93.895 93.895 0 1 0 187.79 0 93.895 93.895 0 1 0-187.79 0Z" fill="#1B31AA" p-id="14787"></path><path d="M602.354 787.228m-93.895 0a93.895 93.895 0 1 0 187.79 0 93.895 93.895 0 1 0-187.79 0Z" fill="#1A30A8" p-id="14788"></path><path d="M612.948 776.942m-93.895 0a93.895 93.895 0 1 0 187.79 0 93.895 93.895 0 1 0-187.79 0Z" fill="#1A2FA7" p-id="14789"></path><path d="M622.648 765.8m-93.895 0a93.895 93.895 0 1 0 187.79 0 93.895 93.895 0 1 0-187.79 0Z" fill="#192EA5" p-id="14790"></path><path d="M631.395 753.863m-93.895 0a93.895 93.895 0 1 0 187.79 0 93.895 93.895 0 1 0-187.79 0Z" fill="#192DA4" p-id="14791"></path><path d="M639.13 741.19m-93.895 0a93.895 93.895 0 1 0 187.79 0 93.895 93.895 0 1 0-187.79 0Z" fill="#182CA3" p-id="14792"></path><path d="M645.791 727.841m-93.895 0a93.895 93.895 0 1 0 187.79 0 93.895 93.895 0 1 0-187.79 0Z" fill="#172BA1" p-id="14793"></path><path d="M651.321 713.876m-93.895 0a93.895 93.895 0 1 0 187.79 0 93.895 93.895 0 1 0-187.79 0Z" fill="#1729A0" p-id="14794"></path><path d="M655.659 699.353m-93.895 0a93.895 93.895 0 1 0 187.79 0 93.895 93.895 0 1 0-187.79 0Z" fill="#16289F" p-id="14795"></path><path d="M658.745 684.333m-93.895 0a93.895 93.895 0 1 0 187.79 0 93.895 93.895 0 1 0-187.79 0Z" fill="#16279D" p-id="14796"></path><path d="M660.521 668.876m-93.895 0a93.895 93.895 0 1 0 187.79 0 93.895 93.895 0 1 0-187.79 0Z" fill="#15269C" p-id="14797"></path><path d="M660.926 653.055m-93.895 0a93.895 93.895 0 1 0 187.79 0 93.895 93.895 0 1 0-187.79 0Z" fill="#15259B" p-id="14798"></path><path d="M659.936 637.371m-93.895 0a93.895 93.895 0 1 0 187.79 0 93.895 93.895 0 1 0-187.79 0Z" fill="#142499" p-id="14799"></path><path d="M657.6 622.091m-93.895 0a93.895 93.895 0 1 0 187.79 0 93.895 93.895 0 1 0-187.79 0Z" fill="#142398" p-id="14800"></path><path d="M653.979 607.273m-93.895 0a93.895 93.895 0 1 0 187.79 0 93.895 93.895 0 1 0-187.79 0Z" fill="#132297" p-id="14801"></path><path d="M649.132 592.978m-93.895 0a93.895 93.895 0 1 0 187.79 0 93.895 93.895 0 1 0-187.79 0Z" fill="#132195" p-id="14802"></path><path d="M643.117 579.265m-93.895 0a93.895 93.895 0 1 0 187.79 0 93.895 93.895 0 1 0-187.79 0Z" fill="#122094" p-id="14803"></path><path d="M635.996 566.194m-93.895 0a93.895 93.895 0 1 0 187.79 0 93.895 93.895 0 1 0-187.79 0Z" fill="#111F92" p-id="14804"></path><path d="M627.828 553.824m-93.895 0a93.895 93.895 0 1 0 187.79 0 93.895 93.895 0 1 0-187.79 0Z" fill="#111E91" p-id="14805"></path><path d="M618.672 542.216m-93.895 0a93.895 93.895 0 1 0 187.79 0 93.895 93.895 0 1 0-187.79 0Z" fill="#101D90" p-id="14806"></path><path d="M608.587 531.427m-93.895 0a93.895 93.895 0 1 0 187.79 0 93.895 93.895 0 1 0-187.79 0Z" fill="#101B8E" p-id="14807"></path><path d="M597.634 521.519m-93.895 0a93.895 93.895 0 1 0 187.79 0 93.895 93.895 0 1 0-187.79 0Z" fill="#0F1A8D" p-id="14808"></path><path d="M585.872 512.551m-93.895 0a93.895 93.895 0 1 0 187.79 0 93.895 93.895 0 1 0-187.79 0Z" fill="#0F198C" p-id="14809"></path><path d="M573.361 504.582m-93.895 0a93.895 93.895 0 1 0 187.79 0 93.895 93.895 0 1 0-187.79 0Z" fill="#0E188A" p-id="14810"></path><path d="M560.16 497.672m-93.895 0a93.895 93.895 0 1 0 187.79 0 93.895 93.895 0 1 0-187.79 0Z" fill="#0E1789" p-id="14811"></path><path d="M546.329 491.88m-93.895 0a93.895 93.895 0 1 0 187.79 0 93.895 93.895 0 1 0-187.79 0Z" fill="#0D1688" p-id="14812"></path><path d="M531.928 487.267m-93.895 0a93.895 93.895 0 1 0 187.79 0 93.895 93.895 0 1 0-187.79 0Z" fill="#0D1586" p-id="14813"></path><path d="M517.015 483.892m-93.895 0a93.895 93.895 0 1 0 187.79 0 93.895 93.895 0 1 0-187.79 0Z" fill="#0C1485" p-id="14814"></path><path d="M501.652 481.814m-93.895 0a93.895 93.895 0 1 0 187.79 0 93.895 93.895 0 1 0-187.79 0Z" fill="#0B1384" p-id="14815"></path><path d="M485.896 481.093m-93.895 0a93.895 93.895 0 1 0 187.79 0 93.895 93.895 0 1 0-187.79 0Z" fill="#0B1282" p-id="14816"></path><path d="M470.135 481.769m-93.895 0a93.895 93.895 0 1 0 187.79 0 93.895 93.895 0 1 0-187.79 0Z" fill="#0A1181" p-id="14817"></path><path d="M454.763 483.803m-93.895 0a93.895 93.895 0 1 0 187.79 0 93.895 93.895 0 1 0-187.79 0Z" fill="#0A107F" p-id="14818"></path><path d="M439.839 487.136m-93.895 0a93.895 93.895 0 1 0 187.79 0 93.895 93.895 0 1 0-187.79 0Z" fill="#090E7E" p-id="14819"></path><path d="M425.425 491.708m-93.895 0a93.895 93.895 0 1 0 187.79 0 93.895 93.895 0 1 0-187.79 0Z" fill="#090D7D" p-id="14820"></path><path d="M411.579 497.46m-93.895 0a93.895 93.895 0 1 0 187.79 0 93.895 93.895 0 1 0-187.79 0Z" fill="#080C7B" p-id="14821"></path><path d="M398.36 504.331m-93.895 0a93.895 93.895 0 1 0 187.79 0 93.895 93.895 0 1 0-187.79 0Z" fill="#080B7A" p-id="14822"></path><path d="M385.829 512.262m-93.895 0a93.895 93.895 0 1 0 187.79 0 93.895 93.895 0 1 0-187.79 0Z" fill="#070A79" p-id="14823"></path><path d="M374.044 521.195m-93.895 0a93.895 93.895 0 1 0 187.79 0 93.895 93.895 0 1 0-187.79 0Z" fill="#070977" p-id="14824"></path><path d="M363.066 531.068m-93.895 0a93.895 93.895 0 1 0 187.79 0 93.895 93.895 0 1 0-187.79 0Z" fill="#060876" p-id="14825"></path></svg>