<?xml version="1.0" standalone="no"?><!DOCTYPE svg PUBLIC "-//W3C//DTD SVG 1.1//EN" "http://www.w3.org/Graphics/SVG/1.1/DTD/svg11.dtd"><svg t="1584982282934" class="icon" viewBox="0 0 1024 1024" version="1.1" xmlns="http://www.w3.org/2000/svg" p-id="15588" width="64" height="64" xmlns:xlink="http://www.w3.org/1999/xlink"><defs><style type="text/css"></style></defs><path d="M361.819 802.239m-93.895 0a93.895 93.895 0 1 0 187.79 0 93.895 93.895 0 1 0-187.79 0Z" fill="#3D75FF" p-id="15589"></path><path d="M371.014 790.248m-93.895 0a93.895 93.895 0 1 0 187.79 0 93.895 93.895 0 1 0-187.79 0Z" fill="#3C74FE" p-id="15590"></path><path d="M380.208 778.256m-93.895 0a93.895 93.895 0 1 0 187.79 0 93.895 93.895 0 1 0-187.79 0Z" fill="#3C73FC" p-id="15591"></path><path d="M389.402 766.264m-93.895 0a93.895 93.895 0 1 0 187.79 0 93.895 93.895 0 1 0-187.79 0Z" fill="#3B72FB" p-id="15592"></path><path d="M398.597 754.272m-93.895 0a93.895 93.895 0 1 0 187.79 0 93.895 93.895 0 1 0-187.79 0Z" fill="#3B71FA" p-id="15593"></path><path d="M407.791 742.28m-93.895 0a93.895 93.895 0 1 0 187.79 0 93.895 93.895 0 1 0-187.79 0Z" fill="#3A70F8" p-id="15594"></path><path d="M416.985 730.289m-93.895 0a93.895 93.895 0 1 0 187.79 0 93.895 93.895 0 1 0-187.79 0Z" fill="#3A6FF7" p-id="15595"></path><path d="M426.18 718.297m-93.895 0a93.895 93.895 0 1 0 187.79 0 93.895 93.895 0 1 0-187.79 0Z" fill="#396DF6" p-id="15596"></path><path d="M435.374 706.305m-93.895 0a93.895 93.895 0 1 0 187.79 0 93.895 93.895 0 1 0-187.79 0Z" fill="#396CF4" p-id="15597"></path><path d="M444.568 694.313m-93.895 0a93.895 93.895 0 1 0 187.79 0 93.895 93.895 0 1 0-187.79 0Z" fill="#386BF3" p-id="15598"></path><path d="M453.763 682.321m-93.895 0a93.895 93.895 0 1 0 187.79 0 93.895 93.895 0 1 0-187.79 0Z" fill="#386AF1" p-id="15599"></path><path d="M462.957 670.329m-93.895 0a93.895 93.895 0 1 0 187.79 0 93.895 93.895 0 1 0-187.79 0Z" fill="#3769F0" p-id="15600"></path><path d="M472.151 658.338m-93.895 0a93.895 93.895 0 1 0 187.79 0 93.895 93.895 0 1 0-187.79 0Z" fill="#3668EF" p-id="15601"></path><path d="M481.346 646.346m-93.895 0a93.895 93.895 0 1 0 187.79 0 93.895 93.895 0 1 0-187.79 0Z" fill="#3667ED" p-id="15602"></path><path d="M490.54 634.354m-93.895 0a93.895 93.895 0 1 0 187.79 0 93.895 93.895 0 1 0-187.79 0Z" fill="#3566EC" p-id="15603"></path><path d="M499.734 622.362m-93.895 0a93.895 93.895 0 1 0 187.79 0 93.895 93.895 0 1 0-187.79 0Z" fill="#3565EB" p-id="15604"></path><path d="M508.928 610.37m-93.895 0a93.895 93.895 0 1 0 187.79 0 93.895 93.895 0 1 0-187.79 0Z" fill="#3464E9" p-id="15605"></path><path d="M518.123 598.378m-93.895 0a93.895 93.895 0 1 0 187.79 0 93.895 93.895 0 1 0-187.79 0Z" fill="#3463E8" p-id="15606"></path><path d="M527.317 586.387m-93.895 0a93.895 93.895 0 1 0 187.79 0 93.895 93.895 0 1 0-187.79 0Z" fill="#3362E7" p-id="15607"></path><path d="M536.511 574.395m-93.895 0a93.895 93.895 0 1 0 187.79 0 93.895 93.895 0 1 0-187.79 0Z" fill="#3360E5" p-id="15608"></path><path d="M545.706 562.403m-93.895 0a93.895 93.895 0 1 0 187.79 0 93.895 93.895 0 1 0-187.79 0Z" fill="#325FE4" p-id="15609"></path><path d="M554.9 550.411m-93.895 0a93.895 93.895 0 1 0 187.79 0 93.895 93.895 0 1 0-187.79 0Z" fill="#325EE3" p-id="15610"></path><path d="M564.094 538.419m-93.895 0a93.895 93.895 0 1 0 187.79 0 93.895 93.895 0 1 0-187.79 0Z" fill="#315DE1" p-id="15611"></path><path d="M573.289 526.427m-93.895 0a93.895 93.895 0 1 0 187.79 0 93.895 93.895 0 1 0-187.79 0Z" fill="#305CE0" p-id="15612"></path><path d="M582.483 514.436m-93.895 0a93.895 93.895 0 1 0 187.79 0 93.895 93.895 0 1 0-187.79 0Z" fill="#305BDE" p-id="15613"></path><path d="M591.677 502.444m-93.895 0a93.895 93.895 0 1 0 187.79 0 93.895 93.895 0 1 0-187.79 0Z" fill="#2F5ADD" p-id="15614"></path><path d="M600.872 490.452m-93.895 0a93.895 93.895 0 1 0 187.79 0 93.895 93.895 0 1 0-187.79 0Z" fill="#2F59DC" p-id="15615"></path><path d="M610.066 478.46m-93.895 0a93.895 93.895 0 1 0 187.79 0 93.895 93.895 0 1 0-187.79 0Z" fill="#2E58DA" p-id="15616"></path><path d="M619.26 466.468m-93.895 0a93.895 93.895 0 1 0 187.79 0 93.895 93.895 0 1 0-187.79 0Z" fill="#2E57D9" p-id="15617"></path><path d="M628.455 454.477m-93.895 0a93.895 93.895 0 1 0 187.79 0 93.895 93.895 0 1 0-187.79 0Z" fill="#2D56D8" p-id="15618"></path><path d="M637.625 442.496m-93.895 0a93.895 93.895 0 1 0 187.79 0 93.895 93.895 0 1 0-187.79 0Z" fill="#2D55D6" p-id="15619"></path><path d="M645.897 430.294m-93.895 0a93.895 93.895 0 1 0 187.79 0 93.895 93.895 0 1 0-187.79 0Z" fill="#2C54D5" p-id="15620"></path><path d="M653.141 417.387m-93.895 0a93.895 93.895 0 1 0 187.79 0 93.895 93.895 0 1 0-187.79 0Z" fill="#2C52D4" p-id="15621"></path><path d="M659.299 403.834m-93.895 0a93.895 93.895 0 1 0 187.79 0 93.895 93.895 0 1 0-187.79 0Z" fill="#2B51D2" p-id="15622"></path><path d="M664.311 389.695m-93.895 0a93.895 93.895 0 1 0 187.79 0 93.895 93.895 0 1 0-187.79 0Z" fill="#2A50D1" p-id="15623"></path><path d="M668.118 375.026m-93.895 0a93.895 93.895 0 1 0 187.79 0 93.895 93.895 0 1 0-187.79 0Z" fill="#2A4FD0" p-id="15624"></path><path d="M670.661 359.887m-93.895 0a93.895 93.895 0 1 0 187.79 0 93.895 93.895 0 1 0-187.79 0Z" fill="#294ECE" p-id="15625"></path><path d="M671.882 344.335m-93.895 0a93.895 93.895 0 1 0 187.79 0 93.895 93.895 0 1 0-187.79 0Z" fill="#294DCD" p-id="15626"></path><path d="M671.723 328.52m-93.895 0a93.895 93.895 0 1 0 187.79 0 93.895 93.895 0 1 0-187.79 0Z" fill="#284CCB" p-id="15627"></path><path d="M670.187 313.005m-93.895 0a93.895 93.895 0 1 0 187.79 0 93.895 93.895 0 1 0-187.79 0Z" fill="#284BCA" p-id="15628"></path><path d="M667.33 297.914m-93.895 0a93.895 93.895 0 1 0 187.79 0 93.895 93.895 0 1 0-187.79 0Z" fill="#274AC9" p-id="15629"></path><path d="M663.212 283.307m-93.895 0a93.895 93.895 0 1 0 187.79 0 93.895 93.895 0 1 0-187.79 0Z" fill="#2749C7" p-id="15630"></path><path d="M657.893 269.244m-93.895 0a93.895 93.895 0 1 0 187.79 0 93.895 93.895 0 1 0-187.79 0Z" fill="#2648C6" p-id="15631"></path><path d="M651.431 255.785m-93.895 0a93.895 93.895 0 1 0 187.79 0 93.895 93.895 0 1 0-187.79 0Z" fill="#2647C5" p-id="15632"></path><path d="M643.886 242.99m-93.895 0a93.895 93.895 0 1 0 187.79 0 93.895 93.895 0 1 0-187.79 0Z" fill="#2546C3" p-id="15633"></path><path d="M635.317 230.918m-93.895 0a93.895 93.895 0 1 0 187.79 0 93.895 93.895 0 1 0-187.79 0Z" fill="#2444C2" p-id="15634"></path><path d="M625.784 219.63m-93.895 0a93.895 93.895 0 1 0 187.79 0 93.895 93.895 0 1 0-187.79 0Z" fill="#2443C1" p-id="15635"></path><path d="M615.346 209.185m-93.895 0a93.895 93.895 0 1 0 187.79 0 93.895 93.895 0 1 0-187.79 0Z" fill="#2342BF" p-id="15636"></path><path d="M604.063 199.644m-93.895 0a93.895 93.895 0 1 0 187.79 0 93.895 93.895 0 1 0-187.79 0Z" fill="#2341BE" p-id="15637"></path><path d="M591.993 191.066m-93.895 0a93.895 93.895 0 1 0 187.79 0 93.895 93.895 0 1 0-187.79 0Z" fill="#2240BD" p-id="15638"></path><path d="M579.196 183.511m-93.895 0a93.895 93.895 0 1 0 187.79 0 93.895 93.895 0 1 0-187.79 0Z" fill="#223FBB" p-id="15639"></path><path d="M565.732 177.039m-93.895 0a93.895 93.895 0 1 0 187.79 0 93.895 93.895 0 1 0-187.79 0Z" fill="#213EBA" p-id="15640"></path><path d="M551.659 171.71m-93.895 0a93.895 93.895 0 1 0 187.79 0 93.895 93.895 0 1 0-187.79 0Z" fill="#213DB8" p-id="15641"></path><path d="M537.037 167.584m-93.895 0a93.895 93.895 0 1 0 187.79 0 93.895 93.895 0 1 0-187.79 0Z" fill="#203CB7" p-id="15642"></path><path d="M521.926 164.72m-93.895 0a93.895 93.895 0 1 0 187.79 0 93.895 93.895 0 1 0-187.79 0Z" fill="#203BB6" p-id="15643"></path><path d="M506.384 163.179m-93.895 0a93.895 93.895 0 1 0 187.79 0 93.895 93.895 0 1 0-187.79 0Z" fill="#1F3AB4" p-id="15644"></path><path d="M490.535 163.019m-93.895 0a93.895 93.895 0 1 0 187.79 0 93.895 93.895 0 1 0-187.79 0Z" fill="#1F39B3" p-id="15645"></path><path d="M474.931 164.248m-93.895 0a93.895 93.895 0 1 0 187.79 0 93.895 93.895 0 1 0-187.79 0Z" fill="#1E37B2" p-id="15646"></path><path d="M459.739 166.811m-93.895 0a93.895 93.895 0 1 0 187.79 0 93.895 93.895 0 1 0-187.79 0Z" fill="#1D36B0" p-id="15647"></path><path d="M445.017 170.648m-93.895 0a93.895 93.895 0 1 0 187.79 0 93.895 93.895 0 1 0-187.79 0Z" fill="#1D35AF" p-id="15648"></path><path d="M430.825 175.7m-93.895 0a93.895 93.895 0 1 0 187.79 0 93.895 93.895 0 1 0-187.79 0Z" fill="#1C34AE" p-id="15649"></path><path d="M417.224 181.909m-93.895 0a93.895 93.895 0 1 0 187.79 0 93.895 93.895 0 1 0-187.79 0Z" fill="#1C33AC" p-id="15650"></path><path d="M404.273 189.213m-93.895 0a93.895 93.895 0 1 0 187.79 0 93.895 93.895 0 1 0-187.79 0Z" fill="#1B32AB" p-id="15651"></path><path d="M392.032 197.555m-93.895 0a93.895 93.895 0 1 0 187.79 0 93.895 93.895 0 1 0-187.79 0Z" fill="#1B31AA" p-id="15652"></path><path d="M380.561 206.874m-93.895 0a93.895 93.895 0 1 0 187.79 0 93.895 93.895 0 1 0-187.79 0Z" fill="#1A30A8" p-id="15653"></path><path d="M369.921 217.112m-93.895 0a93.895 93.895 0 1 0 187.79 0 93.895 93.895 0 1 0-187.79 0Z" fill="#1A2FA7" p-id="15654"></path><path d="M360.169 228.21m-93.895 0a93.895 93.895 0 1 0 187.79 0 93.895 93.895 0 1 0-187.79 0Z" fill="#192EA5" p-id="15655"></path><path d="M351.368 240.106m-93.895 0a93.895 93.895 0 1 0 187.79 0 93.895 93.895 0 1 0-187.79 0Z" fill="#192DA4" p-id="15656"></path><path d="M343.576 252.744m-93.895 0a93.895 93.895 0 1 0 187.79 0 93.895 93.895 0 1 0-187.79 0Z" fill="#182CA3" p-id="15657"></path><path d="M336.853 266.062m-93.895 0a93.895 93.895 0 1 0 187.79 0 93.895 93.895 0 1 0-187.79 0Z" fill="#172BA1" p-id="15658"></path><path d="M331.26 280.002m-93.895 0a93.895 93.895 0 1 0 187.79 0 93.895 93.895 0 1 0-187.79 0Z" fill="#1729A0" p-id="15659"></path><path d="M326.856 294.505m-93.895 0a93.895 93.895 0 1 0 187.79 0 93.895 93.895 0 1 0-187.79 0Z" fill="#16289F" p-id="15660"></path><path d="M323.7 309.51m-93.895 0a93.895 93.895 0 1 0 187.79 0 93.895 93.895 0 1 0-187.79 0Z" fill="#16279D" p-id="15661"></path><path d="M321.854 324.96m-93.895 0a93.895 93.895 0 1 0 187.79 0 93.895 93.895 0 1 0-187.79 0Z" fill="#15269C" p-id="15662"></path><path d="M321.377 340.779m-93.895 0a93.895 93.895 0 1 0 187.79 0 93.895 93.895 0 1 0-187.79 0Z" fill="#15259B" p-id="15663"></path><path d="M322.295 356.467m-93.895 0a93.895 93.895 0 1 0 187.79 0 93.895 93.895 0 1 0-187.79 0Z" fill="#142499" p-id="15664"></path><path d="M324.561 371.758m-93.895 0a93.895 93.895 0 1 0 187.79 0 93.895 93.895 0 1 0-187.79 0Z" fill="#142398" p-id="15665"></path><path d="M328.114 386.592m-93.895 0a93.895 93.895 0 1 0 187.79 0 93.895 93.895 0 1 0-187.79 0Z" fill="#132297" p-id="15666"></path><path d="M332.896 400.909m-93.895 0a93.895 93.895 0 1 0 187.79 0 93.895 93.895 0 1 0-187.79 0Z" fill="#132195" p-id="15667"></path><path d="M338.848 414.649m-93.895 0a93.895 93.895 0 1 0 187.79 0 93.895 93.895 0 1 0-187.79 0Z" fill="#122094" p-id="15668"></path><path d="M345.909 427.752m-93.895 0a93.895 93.895 0 1 0 187.79 0 93.895 93.895 0 1 0-187.79 0Z" fill="#111F92" p-id="15669"></path><path d="M354.021 440.159m-93.895 0a93.895 93.895 0 1 0 187.79 0 93.895 93.895 0 1 0-187.79 0Z" fill="#111E91" p-id="15670"></path><path d="M363.124 451.81m-93.895 0a93.895 93.895 0 1 0 187.79 0 93.895 93.895 0 1 0-187.79 0Z" fill="#101D90" p-id="15671"></path><path d="M373.159 462.644m-93.895 0a93.895 93.895 0 1 0 187.79 0 93.895 93.895 0 1 0-187.79 0Z" fill="#101B8E" p-id="15672"></path><path d="M384.067 472.603m-93.895 0a93.895 93.895 0 1 0 187.79 0 93.895 93.895 0 1 0-187.79 0Z" fill="#0F1A8D" p-id="15673"></path><path d="M395.788 481.625m-93.895 0a93.895 93.895 0 1 0 187.79 0 93.895 93.895 0 1 0-187.79 0Z" fill="#0F198C" p-id="15674"></path><path d="M408.262 489.651m-93.895 0a93.895 93.895 0 1 0 187.79 0 93.895 93.895 0 1 0-187.79 0Z" fill="#0E188A" p-id="15675"></path><path d="M421.431 496.621m-93.895 0a93.895 93.895 0 1 0 187.79 0 93.895 93.895 0 1 0-187.79 0Z" fill="#0E1789" p-id="15676"></path><path d="M435.236 502.476m-93.895 0a93.895 93.895 0 1 0 187.79 0 93.895 93.895 0 1 0-187.79 0Z" fill="#0D1688" p-id="15677"></path><path d="M449.616 507.155m-93.895 0a93.895 93.895 0 1 0 187.79 0 93.895 93.895 0 1 0-187.79 0Z" fill="#0D1586" p-id="15678"></path><path d="M464.513 510.598m-93.895 0a93.895 93.895 0 1 0 187.79 0 93.895 93.895 0 1 0-187.79 0Z" fill="#0C1485" p-id="15679"></path><path d="M479.867 512.746m-93.895 0a93.895 93.895 0 1 0 187.79 0 93.895 93.895 0 1 0-187.79 0Z" fill="#0B1384" p-id="15680"></path><path d="M495.619 513.539m-93.895 0a93.895 93.895 0 1 0 187.79 0 93.895 93.895 0 1 0-187.79 0Z" fill="#0B1282" p-id="15681"></path><path d="M511.383 512.935m-93.895 0a93.895 93.895 0 1 0 187.79 0 93.895 93.895 0 1 0-187.79 0Z" fill="#0A1181" p-id="15682"></path><path d="M526.765 510.971m-93.895 0a93.895 93.895 0 1 0 187.79 0 93.895 93.895 0 1 0-187.79 0Z" fill="#0A107F" p-id="15683"></path><path d="M541.703 507.706m-93.895 0a93.895 93.895 0 1 0 187.79 0 93.895 93.895 0 1 0-187.79 0Z" fill="#090E7E" p-id="15684"></path><path d="M556.138 503.2m-93.895 0a93.895 93.895 0 1 0 187.79 0 93.895 93.895 0 1 0-187.79 0Z" fill="#090D7D" p-id="15685"></path><path d="M570.01 497.512m-93.895 0a93.895 93.895 0 1 0 187.79 0 93.895 93.895 0 1 0-187.79 0Z" fill="#080C7B" p-id="15686"></path><path d="M583.26 490.701m-93.895 0a93.895 93.895 0 1 0 187.79 0 93.895 93.895 0 1 0-187.79 0Z" fill="#080B7A" p-id="15687"></path><path d="M595.828 482.827m-93.895 0a93.895 93.895 0 1 0 187.79 0 93.895 93.895 0 1 0-187.79 0Z" fill="#070A79" p-id="15688"></path><path d="M607.653 473.949m-93.895 0a93.895 93.895 0 1 0 187.79 0 93.895 93.895 0 1 0-187.79 0Z" fill="#070977" p-id="15689"></path><path d="M618.676 464.126m-93.895 0a93.895 93.895 0 1 0 187.79 0 93.895 93.895 0 1 0-187.79 0Z" fill="#060876" p-id="15690"></path></svg>