<?xml version="1.0" standalone="no"?><!DOCTYPE svg PUBLIC "-//W3C//DTD SVG 1.1//EN" "http://www.w3.org/Graphics/SVG/1.1/DTD/svg11.dtd"><svg t="1581264516746" class="icon" viewBox="0 0 1024 1024" version="1.1" xmlns="http://www.w3.org/2000/svg" p-id="9595" width="80" height="80" xmlns:xlink="http://www.w3.org/1999/xlink"><defs><style type="text/css"></style></defs><path d="M223.7 592.7m-79.8 0a79.8 79.8 0 1 0 159.6 0 79.8 79.8 0 1 0-159.6 0Z" p-id="9596" fill="#1195db"></path><path d="M852.7 592.7m-79.8 0a79.8 79.8 0 1 0 159.6 0 79.8 79.8 0 1 0-159.6 0Z" p-id="9597" fill="#1195db"></path><path d="M915.6 466.9C863.8 458 758 448 716.4 435.4c-37.4-11.3-104.5-83.9-283-83.9-156.8 0-214 60.2-272.6 73.4 0 0-81.2 15.8-94.3 21-13.1 5.2-42.3 15.4-41.9 31.4l0 83.9c0 0 4.4 28 31.4 31.4l62.9 10.5c-4.1-72.4 46.9-115.3 104.8-115.3 57.9 0 104.8 46.9 104.8 104.8 0 6.1-0.6 12-1.6 17.7l1.6 3.2L750 613.5c-1.4-6.8-1.9-13.8-2.1-21-1.9-61 46.9-104.8 104.8-104.8 57.9 0 104.8 46.9 104.8 104.8 0 7.2-0.7 14.2-2.1 21l2.1 0c0 0 41.9-4.5 41.9-62.9C999.5 500.2 958.5 474.2 915.6 466.9zM255.2 435.4c0 0-10.5 2-10.5-10.5 0-10.2 50.5-37.7 127.5-48.2 8.3 12.5 18 33.3 19.4 62.7L255.2 435.4zM611.6 445.9l-202.5-6c-3.9-18.1-11.1-47-20-65.2 14.1-1.4 28.8-2.2 44.3-2.2 78.9 0 171.9 36.3 188.7 52.4C622.1 424.9 638.1 445.9 611.6 445.9z" p-id="9598" fill="#1195db"></path></svg>