<?xml version="1.0" standalone="no"?><!DOCTYPE svg PUBLIC "-//W3C//DTD SVG 1.1//EN" "http://www.w3.org/Graphics/SVG/1.1/DTD/svg11.dtd"><svg t="1585244369485" class="icon" viewBox="0 0 1024 1024" version="1.1" xmlns="http://www.w3.org/2000/svg" p-id="2420" width="64" height="64" xmlns:xlink="http://www.w3.org/1999/xlink"><defs><style type="text/css"></style></defs><path d="M933.82 366.12h-83.36a22.22 22.22 0 0 0-10.9 3L802 254.82c-12-65-57.36-96.32-113-96.32H335.9c-63.93 0-102.74 42.08-113 96.28l-37.73 114.65a22.7 22.7 0 0 0-11.55-3.31h-83.4A23.32 23.32 0 0 0 67 389.55v20.36a23.34 23.34 0 0 0 23.22 23.42l31.59 5.45c-10 19.67-15.68 42.17-15.68 68.33L94.47 642a98.91 98.91 0 0 0 0.77 11.92 41.24 41.24 0 0 0-0.77 7.6V823.7a41.62 41.62 0 0 0 41.44 41.8h63.24a41.59 41.59 0 0 0 41.39-41.8v-52.13h543.68v52.13a41.62 41.62 0 0 0 41.44 41.8h63.25a41.61 41.61 0 0 0 41.43-41.8V661.48a41.56 41.56 0 0 0-0.77-7.6 107.84 107.84 0 0 0 0.77-11.92l-11.71-134.85c0-26.25-5.69-48.74-15.71-68.49l30.9-5.29A23.31 23.31 0 0 0 957 409.9v-20.35a23.26 23.26 0 0 0-23.18-23.43z m-683.1-24l27.59-74.15 0.4-1.73c2.75-15 8.89-17.65 17.93-29.25H728.7c9.17 11.91 14.86 14.94 17.36 29.08l28 76 10.26 41.31c-2.3 30.25-38.29 54.11-68.25 54.11H308.72c-30 0-66-23.86-68.3-54.11z m19.35 352.62c-34.65 0-62.72-28.36-62.72-63.33s28.07-63.33 62.72-63.33 62.71 28.31 62.71 63.33-28.07 63.33-62.71 63.33zM620.46 648a18.74 18.74 0 0 1-18.7 18.82h-176A18.73 18.73 0 0 1 407.14 648v-53a18.71 18.71 0 0 1 18.66-18.77h176A18.73 18.73 0 0 1 620.46 595z m134.28 46.73c-34.65 0-62.75-28.36-62.75-63.33s28.1-63.33 62.75-63.33 62.72 28.31 62.72 63.33-28.07 63.33-62.72 63.33z m0 0" p-id="2421" fill="#bfbfbf"></path></svg>