<?xml version="1.0" standalone="no"?><!DOCTYPE svg PUBLIC "-//W3C//DTD SVG 1.1//EN" "http://www.w3.org/Graphics/SVG/1.1/DTD/svg11.dtd"><svg t="1584858734421" class="icon" viewBox="0 0 1024 1024" version="1.1" xmlns="http://www.w3.org/2000/svg" p-id="1894" width="64" height="64" xmlns:xlink="http://www.w3.org/1999/xlink"><defs><style type="text/css"></style></defs><path d="M512 23.272727C332.055273 23.272727 186.181818 169.146182 186.181818 349.090909c0 143.150545 206.242909 420.608 290.536727 518.539636a46.429091 46.429091 0 0 0 70.56291 0C631.575273 769.698909 837.818182 492.241455 837.818182 349.090909c0-179.944727-145.873455-325.818182-325.818182-325.818182m0 69.818182c141.149091 0 256 114.850909 256 256 0 96.139636-143.313455 316.066909-256 452.096C399.313455 665.157818 256 445.230545 256 349.090909c0-141.149091 114.850909-256 256-256m0 93.090909a139.636364 139.636364 0 0 1 0 279.272727 139.636364 139.636364 0 0 1 0-279.272727z m0 69.818182c-38.493091 0-69.818182 31.325091-69.818182 69.818182s31.325091 69.818182 69.818182 69.818182 69.818182-31.325091 69.818182-69.818182-31.325091-69.818182-69.818182-69.818182z m0 733.090909c-151.319273 0-314.181818-40.052364-314.181818-128 0-22.900364 11.659636-55.947636 67.165091-83.339636 7.191273-3.560727 15.034182-6.981818 23.505454-10.24a34.909091 34.909091 0 0 1 25.181091 65.117091 213.783273 213.783273 0 0 0-17.757091 7.703272c-21.015273 10.379636-27.671273 19.176727-28.346182 21.410909 4.840727 14.894545 87.365818 57.530182 244.433455 57.530182 157.067636 0 239.592727-42.635636 244.433455-58.833454-0.954182-1.931636-11.147636-14.08-44.125091-27.042909a34.885818 34.885818 0 1 1 25.553454-64.954182C810.868364 797.114182 826.181818 834.653091 826.181818 861.090909c0 87.947636-162.862545 128-314.181818 128z" fill="#bfbfbf" p-id="1895"></path></svg>