<?xml version="1.0" standalone="no"?><!DOCTYPE svg PUBLIC "-//W3C//DTD SVG 1.1//EN" "http://www.w3.org/Graphics/SVG/1.1/DTD/svg11.dtd"><svg t="1581093428892" class="icon" viewBox="0 0 1024 1024" version="1.1" xmlns="http://www.w3.org/2000/svg" p-id="5124" width="32" height="32" xmlns:xlink="http://www.w3.org/1999/xlink"><defs><style type="text/css"></style></defs><path d="M 770.6 534.5 c -106.7 0 -193.1 86.5 -193.1 193.1 S 664 920.7 770.6 920.7 s 193.1 -86.5 193.1 -193.1 s -86.5 -193.1 -193.1 -193.1 Z m 0 321.9 c -71.1 0 -128.8 -57.6 -128.8 -128.8 s 57.6 -128.8 128.8 -128.8 s 128.8 57.6 128.8 128.8 s -57.7 128.8 -128.8 128.8 Z M 644.6 503 c -16.5 -7 -33.6 -13.1 -51.1 -17.9 c 67.9 -39 113.7 -112.4 113.7 -196.4 c 0 -125 -101.3 -226.3 -226.2 -226.3 S 254.8 163.7 254.8 288.7 c 0 84 45.7 157.3 113.6 196.3 C 201 531.6 75.9 679.8 63.5 859 c -0.7 2.6 -1 5.3 -1 8.1 c 0 1.6 0.1 3.2 0.4 4.8 c -0.1 2 -0.2 4 -0.2 6 h 1.7 c 4.4 12.5 16.3 21.5 30.3 21.5 s 25.9 -9 30.3 -21.5 h 2 c 5.7 -190.6 161.9 -343.3 353.9 -343.3 c 36 0 70.7 5.4 103.4 15.3 c 17.6 -18.5 37.9 -34.3 60.3 -46.9 Z M 319.9 287.7 c 0 -88.9 72.1 -160.9 160.9 -160.9 s 160.9 72.1 160.9 160.9 s -72.1 160.9 -160.9 160.9 s -160.9 -72 -160.9 -160.9 Z m 429.2 461.4 l -43.3 -43.3 l -33.9 33.9 l 75.9 75.9 l 127.7 -127.7 l -32.6 -32.6 l -93.8 93.8 Z" p-id="5125" fill="#bfbfbf"></path></svg>