<?xml version="1.0" standalone="no"?><!DOCTYPE svg PUBLIC "-//W3C//DTD SVG 1.1//EN" "http://www.w3.org/Graphics/SVG/1.1/DTD/svg11.dtd"><svg t="1579064224137" class="icon" viewBox="0 0 1024 1024" version="1.1" xmlns="http://www.w3.org/2000/svg" p-id="8759" width="32" height="32" xmlns:xlink="http://www.w3.org/1999/xlink"><defs><style type="text/css"></style></defs><path d="M853 845.9H170.7c-59.2 0-107.4-48.2-107.4-107.4V283.7c0-59.2 48.2-107.4 107.4-107.4H853c59.2 0 107.4 48.2 107.4 107.4v454.8c0 59.2-48.2 107.4-107.4 107.4zM170.7 239.5c-24.4 0-44.2 19.8-44.2 44.2v454.8c0 24.4 19.8 44.2 44.2 44.2H853c24.4 0 44.2-19.8 44.2-44.2V283.7c0-24.4-19.8-44.2-44.2-44.2H170.7z" fill="#bfbfbf" p-id="8760"></path><path d="M758.2 468.5H568.7c-17.4 0-31.6-14.1-31.6-31.6s14.1-31.6 31.6-31.6h189.5c17.4 0 31.6 14.1 31.6 31.6s-14.2 31.6-31.6 31.6zM758.2 626.4H568.7c-17.4 0-31.6-14.1-31.6-31.6 0-17.4 14.1-31.6 31.6-31.6h189.5c17.4 0 31.6 14.1 31.6 31.6 0 17.4-14.2 31.6-31.6 31.6z" fill="#bfbfbf" p-id="8761"></path><path d="M398.1 629.5H284.4c-31.3 0-56.9-25.6-56.9-56.9 0-31.3 25.6-56.9 56.9-56.9h113.7c31.3 0 56.9 25.6 56.9 56.9 0 31.4-25.6 56.9-56.9 56.9z" p-id="8762" fill="#bfbfbf"></path><path d="M341.3 440m-56.9 0a56.9 56.9 0 1 0 113.8 0 56.9 56.9 0 1 0-113.8 0Z" p-id="8763" fill="#bfbfbf"></path></svg>